<?xml version="1.0" standalone="no"?>
<!DOCTYPE svg PUBLIC "-//W3C//DTD SVG 20010904//EN"
 "http://www.w3.org/TR/2001/REC-SVG-20010904/DTD/svg10.dtd">
<svg version="1.0" xmlns="http://www.w3.org/2000/svg"
 width="30pt" height="30pt" viewBox="0 0 512.000000 512.000000"
 preserveAspectRatio="xMidYMid meet">

<g transform="translate(0.000000,512.000000) scale(0.100000,-0.100000)"
fill="#000000" stroke="none">
<path d="M1490 4480 l0 -210 460 -2 459 -3 -239 -312 c-132 -172 -240 -315
-240 -318 0 -2 93 -6 208 -7 l207 -3 0 -1065 0 -1065 -207 -3 c-115 -1 -208
-5 -208 -7 0 -3 108 -146 240 -318 l240 -312 -460 -3 -460 -2 0 -210 0 -210
1070 0 1070 0 0 210 0 210 -460 2 -460 3 240 312 c132 172 240 315 240 318 0
2 -93 6 -207 7 l-208 3 0 1065 0 1065 208 3 c114 1 207 5 207 7 0 3 -108 146
-240 318 l-240 312 460 3 460 2 0 210 0 210 -1070 0 -1070 0 0 -210z"/>
</g>
</svg>
